<svg id="Capa_1" enable-background="new 0 0 512 512" height="512" viewBox="0 0 512 512" width="512" xmlns="http://www.w3.org/2000/svg"><path d="m467 0h-271c-24.813 0-45 20.187-45 45v106c-49.626 0-90 40.374-90 90v30c0 32.355 17.165 60.773 42.864 76.638l-39.882 5.923c-36.729 5.455-63.982 37.024-63.982 74.186v69.253c0 8.284 6.716 15 15 15h271c8.284 0 15-6.716 15-15v-69.105c0-37.21-27.325-68.849-64.192-74.217l-39.204-5.709c17.605-10.699 31.262-27.269 38.248-46.969h92.441l-12.089 72.534c-1.53 9.177 5.58 17.466 14.792 17.466 3.917 0 7.783-1.534 10.67-4.453l84.596-85.547h40.738c24.813 0 45-20.187 45-45v-211c0-24.813-20.187-45-45-45zm-316 181c22.159 0 41.537 12.084 51.928 30h-36.928c-4.042 0-7.751 1.467-10.573 4.358-1.474 1.411-22.627 20.956-64.409 24.929.385-32.755 27.137-59.287 59.982-59.287zm-60 89.399c43.048-3.446 69.976-21.027 80.541-29.399h39.459v30c0 33.084-26.916 60-60 60-32.193 0-60-25.797-60-60.601zm45 89.344c9.943 1.675 20.05 1.677 30 0v29.723c0 .846-.688 1.534-1.534 1.534h-26.933c-.846 0-1.534-.688-1.534-1.534v-29.723zm-106 68.997 31 16.316v36.944h-31zm211 53.26v-37.019l30-16.071v53.09zm20.278-81.916-42.361 22.693c-4.875 2.612-7.917 7.693-7.917 13.223v46h-120v-46c0-5.569-3.085-10.68-8.014-13.274l-43.269-22.773c6.922-8.771 17.036-14.99 28.672-16.718l37.611-5.585v11.817c0 17.387 14.146 31.533 31.534 31.533h26.933c17.387 0 31.533-14.146 31.533-31.534v-11.415l36.485 5.313c11.689 1.703 21.847 7.926 28.793 16.72zm220.722-144.084c0 8.271-6.729 15-15 15h-47c-4.007 0-7.848 1.604-10.666 4.453l-55.769 56.396 7.23-43.382c1.524-9.142-5.535-17.467-14.795-17.467h-105v-30c0-39.111-25.08-72.469-60-84.852v-111.148c0-8.271 6.729-15 15-15h271c8.271 0 15 6.729 15 15z"/><circle cx="331.5" cy="226" r="15"/><path d="m331.5 61c-33.084 0-60 26.916-60 60 0 8.284 6.716 15 15 15s15-6.716 15-15c0-16.542 13.458-30 30-30s30 13.458 30 30-13.458 30-30 30c-8.284 0-15 6.716-15 15v15c0 8.284 6.716 15 15 15s15-6.716 15-15v-1.898c25.85-6.678 45-30.195 45-58.102 0-33.084-26.916-60-60-60z"/></svg>