<svg id="Capa_1" enable-background="new 0 0 512 512" height="512" viewBox="0 0 512 512" width="512" xmlns="http://www.w3.org/2000/svg"><g><path d="m150 60c0-33.084-26.916-60-60-60s-60 26.916-60 60 26.916 60 60 60 60-26.916 60-60zm-60 30c-16.542 0-30-13.458-30-30s13.458-30 30-30 30 13.458 30 30-13.458 30-30 30z"/><path d="m482 362c0-33.084-26.916-60-60-60s-60 26.916-60 60 26.916 60 60 60 60-26.916 60-60zm-60 30c-16.542 0-30-13.458-30-30s13.458-30 30-30 30 13.458 30 30-13.458 30-30 30z"/><path d="m135 302c-24.813 0-45 20.187-45 45 0 8.284 6.716 15 15 15s15-6.716 15-15c0-8.271 6.729-15 15-15s15 6.729 15 15c0 6.321-3.995 12-9.94 14.129-11.999 4.298-20.06 15.747-20.06 28.489v2.382c0 8.284 6.716 15 15 15s15-6.716 15-15v-2.382c0-.106.075-.209.177-.246 17.838-6.39 29.823-23.418 29.823-42.372 0-24.813-20.187-45-45-45z"/><circle cx="135" cy="437" r="15"/><path d="m319.743 362.77c-.594-.325-42.807-11.249-69.343-55.384-23.729-39.465-66.726-65.386-115.4-65.386-74.439 0-135 60.561-135 135s60.561 135 135 135c48.513 0 91.496-25.77 115.291-65.203 15.789-26.167 40.425-45.891 69.465-55.571 6.121-2.046 10.247-7.779 10.244-14.233s-4.134-12.182-10.257-14.223zm-95.139 68.528c-19.157 31.748-52.653 50.702-89.604 50.702-57.897 0-105-47.103-105-105s47.103-105 105-105c37.019 0 70.547 19.007 89.689 50.844 13.479 22.419 32.255 40.988 54.441 54.192-22.193 13.25-40.996 31.839-54.526 54.262z"/><path d="m15 210h150c8.284 0 15-6.716 15-15 0-41.355-33.645-75-75-75h-15-15c-41.355 0-75 33.645-75 75 0 8.284 6.716 15 15 15zm60-60h30c19.556 0 36.239 12.539 42.43 30h-114.86c6.191-17.461 22.874-30 42.43-30z"/><path d="m437 422h-15-15c-41.355 0-75 33.645-75 75 0 8.284 6.716 15 15 15h150c8.284 0 15-6.716 15-15 0-41.355-33.645-75-75-75zm-72.43 60c6.19-17.461 22.873-30 42.43-30h30c19.557 0 36.239 12.539 42.43 30z"/><path d="m192.338 149.257c28.946 9.648 53.583 29.373 69.372 55.539 23.801 39.445 66.789 65.204 115.29 65.204 74.439 0 135-60.561 135-135s-60.561-135-135-135c-48.592 0-91.63 25.853-115.4 65.386-26.311 43.762-68.032 54.668-69.338 55.383-6.127 2.04-10.22 7.786-10.221 14.243s4.171 12.204 10.297 14.245zm94.973-68.413c19.141-31.837 52.67-50.844 89.689-50.844 57.897 0 105 47.103 105 105s-47.103 105-105 105c-36.95 0-70.447-18.954-89.604-50.702-13.526-22.417-32.323-41.002-54.531-54.258 22.188-13.206 40.965-31.775 54.446-54.196z"/><path d="m334.574 177.427c5.857 5.858 15.355 5.858 21.213 0l21.213-21.214 21.213 21.213c5.856 5.858 15.354 5.858 21.213 0 5.858-5.858 5.858-15.355 0-21.213l-21.213-21.213 21.213-21.213c5.858-5.858 5.858-15.355 0-21.213-5.857-5.858-15.355-5.858-21.213 0l-21.213 21.213-21.213-21.213c-5.857-5.858-15.355-5.858-21.213 0s-5.858 15.355 0 21.213l21.213 21.213-21.213 21.213c-5.858 5.858-5.858 15.356 0 21.214z"/></g></svg>